<mxfile host="app.diagrams.net" modified="2023-10-19T12:34:30.146Z" agent="Mozilla/5.0 (Windows NT 10.0; Win64; x64) AppleWebKit/537.36 (KHTML, like Gecko) Chrome/118.0.0.0 Safari/537.36" etag="fCn-D-oFqDOcwwOnNKcL" version="22.0.5" type="device">
  <diagram name="Página-1" id="f_O_Oj1cNvFIWD0726kd">
    <mxGraphModel dx="1688" dy="634" grid="0" gridSize="10" guides="1" tooltips="1" connect="1" arrows="1" fold="1" page="1" pageScale="1" pageWidth="827" pageHeight="1169" math="0" shadow="0">
      <root>
        <mxCell id="0" />
        <mxCell id="1" parent="0" />
        <mxCell id="dim7RNq8vWVdTdWYIxd7-84" value="" style="whiteSpace=wrap;html=1;aspect=fixed;dashed=1;dashPattern=1 4;" vertex="1" parent="1">
          <mxGeometry x="427.5" y="123" width="143" height="143" as="geometry" />
        </mxCell>
        <mxCell id="dim7RNq8vWVdTdWYIxd7-85" value="&lt;b&gt;31&lt;/b&gt; Tasks" style="text;html=1;strokeColor=none;fillColor=none;align=center;verticalAlign=middle;whiteSpace=wrap;rounded=0;" vertex="1" parent="1">
          <mxGeometry x="470" y="236" width="60" height="30" as="geometry" />
        </mxCell>
        <mxCell id="dim7RNq8vWVdTdWYIxd7-86" value="m7g.&lt;b&gt;x&lt;/b&gt;large" style="text;html=1;strokeColor=none;fillColor=none;align=center;verticalAlign=middle;whiteSpace=wrap;rounded=0;" vertex="1" parent="1">
          <mxGeometry x="470.25" y="218" width="59.5" height="18" as="geometry" />
        </mxCell>
        <mxCell id="dim7RNq8vWVdTdWYIxd7-87" value="&lt;b&gt;EC2&lt;/b&gt;" style="text;html=1;strokeColor=none;fillColor=none;align=center;verticalAlign=middle;whiteSpace=wrap;rounded=0;" vertex="1" parent="1">
          <mxGeometry x="428" y="196" width="60" height="30" as="geometry" />
        </mxCell>
        <mxCell id="dim7RNq8vWVdTdWYIxd7-82" value="" style="whiteSpace=wrap;html=1;aspect=fixed;dashed=1;dashPattern=1 4;" vertex="1" parent="1">
          <mxGeometry x="259.5" y="125" width="143" height="143" as="geometry" />
        </mxCell>
        <mxCell id="dim7RNq8vWVdTdWYIxd7-36" value="" style="rounded=1;whiteSpace=wrap;html=1;dashed=1;dashPattern=1 1;" vertex="1" parent="1">
          <mxGeometry x="135" y="128" width="54" height="66" as="geometry" />
        </mxCell>
        <mxCell id="dim7RNq8vWVdTdWYIxd7-14" value="" style="rounded=1;whiteSpace=wrap;html=1;fillColor=none;dashed=1;" vertex="1" parent="1">
          <mxGeometry x="315" y="25" width="197" height="85" as="geometry" />
        </mxCell>
        <mxCell id="dim7RNq8vWVdTdWYIxd7-1" value="" style="shape=cylinder3;whiteSpace=wrap;html=1;boundedLbl=1;backgroundOutline=1;size=15;" vertex="1" parent="1">
          <mxGeometry x="606" y="128" width="60" height="80" as="geometry" />
        </mxCell>
        <mxCell id="dim7RNq8vWVdTdWYIxd7-2" value="" style="rounded=1;whiteSpace=wrap;html=1;" vertex="1" parent="1">
          <mxGeometry x="439" y="138" width="120" height="60" as="geometry" />
        </mxCell>
        <mxCell id="dim7RNq8vWVdTdWYIxd7-3" value="" style="rounded=1;whiteSpace=wrap;html=1;" vertex="1" parent="1">
          <mxGeometry x="272" y="138" width="120" height="60" as="geometry" />
        </mxCell>
        <mxCell id="dim7RNq8vWVdTdWYIxd7-4" value="Aurora" style="text;html=1;strokeColor=none;fillColor=none;align=center;verticalAlign=middle;whiteSpace=wrap;rounded=0;" vertex="1" parent="1">
          <mxGeometry x="606" y="158" width="60" height="30" as="geometry" />
        </mxCell>
        <mxCell id="dim7RNq8vWVdTdWYIxd7-8" value="" style="ellipse;whiteSpace=wrap;html=1;aspect=fixed;" vertex="1" parent="1">
          <mxGeometry x="334" y="63" width="31" height="31" as="geometry" />
        </mxCell>
        <mxCell id="dim7RNq8vWVdTdWYIxd7-9" value="" style="ellipse;whiteSpace=wrap;html=1;aspect=fixed;" vertex="1" parent="1">
          <mxGeometry x="378" y="63" width="31" height="31" as="geometry" />
        </mxCell>
        <mxCell id="dim7RNq8vWVdTdWYIxd7-10" value="" style="ellipse;whiteSpace=wrap;html=1;aspect=fixed;" vertex="1" parent="1">
          <mxGeometry x="422" y="63" width="31" height="31" as="geometry" />
        </mxCell>
        <mxCell id="dim7RNq8vWVdTdWYIxd7-11" value="" style="ellipse;whiteSpace=wrap;html=1;aspect=fixed;" vertex="1" parent="1">
          <mxGeometry x="463" y="63" width="31" height="31" as="geometry" />
        </mxCell>
        <mxCell id="dim7RNq8vWVdTdWYIxd7-12" value="" style="endArrow=classic;html=1;rounded=0;exitX=1;exitY=0.5;exitDx=0;exitDy=0;entryX=0;entryY=0.5;entryDx=0;entryDy=0;" edge="1" parent="1" source="dim7RNq8vWVdTdWYIxd7-3" target="dim7RNq8vWVdTdWYIxd7-2">
          <mxGeometry width="50" height="50" relative="1" as="geometry">
            <mxPoint x="555" y="278" as="sourcePoint" />
            <mxPoint x="605" y="228" as="targetPoint" />
          </mxGeometry>
        </mxCell>
        <mxCell id="dim7RNq8vWVdTdWYIxd7-13" value="" style="endArrow=classic;startArrow=classic;html=1;rounded=0;entryX=0;entryY=0.5;entryDx=0;entryDy=0;exitX=1.006;exitY=0.59;exitDx=0;exitDy=0;exitPerimeter=0;" edge="1" parent="1" source="dim7RNq8vWVdTdWYIxd7-2" target="dim7RNq8vWVdTdWYIxd7-4">
          <mxGeometry width="50" height="50" relative="1" as="geometry">
            <mxPoint x="562" y="171" as="sourcePoint" />
            <mxPoint x="605" y="228" as="targetPoint" />
          </mxGeometry>
        </mxCell>
        <mxCell id="dim7RNq8vWVdTdWYIxd7-15" value="Integrações Externas" style="text;html=1;strokeColor=none;fillColor=none;align=center;verticalAlign=middle;whiteSpace=wrap;rounded=0;" vertex="1" parent="1">
          <mxGeometry x="334" y="29" width="159" height="30" as="geometry" />
        </mxCell>
        <mxCell id="dim7RNq8vWVdTdWYIxd7-16" value="" style="endArrow=none;html=1;rounded=0;" edge="1" parent="1">
          <mxGeometry width="50" height="50" relative="1" as="geometry">
            <mxPoint x="331" y="119" as="sourcePoint" />
            <mxPoint x="393" y="119" as="targetPoint" />
          </mxGeometry>
        </mxCell>
        <mxCell id="dim7RNq8vWVdTdWYIxd7-18" value="" style="endArrow=classic;html=1;rounded=0;" edge="1" parent="1">
          <mxGeometry width="50" height="50" relative="1" as="geometry">
            <mxPoint x="349" y="119" as="sourcePoint" />
            <mxPoint x="349" y="95" as="targetPoint" />
          </mxGeometry>
        </mxCell>
        <mxCell id="dim7RNq8vWVdTdWYIxd7-19" value="" style="endArrow=classic;html=1;rounded=0;" edge="1" parent="1">
          <mxGeometry width="50" height="50" relative="1" as="geometry">
            <mxPoint x="393" y="119" as="sourcePoint" />
            <mxPoint x="393" y="95" as="targetPoint" />
          </mxGeometry>
        </mxCell>
        <mxCell id="dim7RNq8vWVdTdWYIxd7-20" value="" style="endArrow=classic;html=1;rounded=0;" edge="1" parent="1">
          <mxGeometry width="50" height="50" relative="1" as="geometry">
            <mxPoint x="331" y="119" as="sourcePoint" />
            <mxPoint x="331" y="137" as="targetPoint" />
          </mxGeometry>
        </mxCell>
        <mxCell id="dim7RNq8vWVdTdWYIxd7-22" value="" style="endArrow=none;html=1;rounded=0;" edge="1" parent="1">
          <mxGeometry width="50" height="50" relative="1" as="geometry">
            <mxPoint x="437" y="118" as="sourcePoint" />
            <mxPoint x="499" y="118" as="targetPoint" />
          </mxGeometry>
        </mxCell>
        <mxCell id="dim7RNq8vWVdTdWYIxd7-23" value="" style="endArrow=classic;html=1;rounded=0;" edge="1" parent="1">
          <mxGeometry width="50" height="50" relative="1" as="geometry">
            <mxPoint x="437" y="118" as="sourcePoint" />
            <mxPoint x="437" y="94" as="targetPoint" />
          </mxGeometry>
        </mxCell>
        <mxCell id="dim7RNq8vWVdTdWYIxd7-24" value="" style="endArrow=classic;html=1;rounded=0;" edge="1" parent="1">
          <mxGeometry width="50" height="50" relative="1" as="geometry">
            <mxPoint x="481" y="118" as="sourcePoint" />
            <mxPoint x="481" y="94" as="targetPoint" />
          </mxGeometry>
        </mxCell>
        <mxCell id="dim7RNq8vWVdTdWYIxd7-25" value="" style="endArrow=classic;html=1;rounded=0;entryX=0.5;entryY=0;entryDx=0;entryDy=0;" edge="1" parent="1" target="dim7RNq8vWVdTdWYIxd7-2">
          <mxGeometry width="50" height="50" relative="1" as="geometry">
            <mxPoint x="499" y="118" as="sourcePoint" />
            <mxPoint x="419" y="136" as="targetPoint" />
          </mxGeometry>
        </mxCell>
        <mxCell id="dim7RNq8vWVdTdWYIxd7-26" value="A" style="text;html=1;strokeColor=none;fillColor=none;align=center;verticalAlign=middle;whiteSpace=wrap;rounded=0;" vertex="1" parent="1">
          <mxGeometry x="319.5" y="63" width="60" height="30" as="geometry" />
        </mxCell>
        <mxCell id="dim7RNq8vWVdTdWYIxd7-27" value="B" style="text;html=1;strokeColor=none;fillColor=none;align=center;verticalAlign=middle;whiteSpace=wrap;rounded=0;" vertex="1" parent="1">
          <mxGeometry x="363.5" y="64" width="60" height="30" as="geometry" />
        </mxCell>
        <mxCell id="dim7RNq8vWVdTdWYIxd7-28" value="C" style="text;html=1;strokeColor=none;fillColor=none;align=center;verticalAlign=middle;whiteSpace=wrap;rounded=0;" vertex="1" parent="1">
          <mxGeometry x="407.5" y="64" width="60" height="30" as="geometry" />
        </mxCell>
        <mxCell id="dim7RNq8vWVdTdWYIxd7-29" value="D" style="text;html=1;strokeColor=none;fillColor=none;align=center;verticalAlign=middle;whiteSpace=wrap;rounded=0;" vertex="1" parent="1">
          <mxGeometry x="448.5" y="64" width="60" height="30" as="geometry" />
        </mxCell>
        <mxCell id="dim7RNq8vWVdTdWYIxd7-30" value="" style="rhombus;whiteSpace=wrap;html=1;" vertex="1" parent="1">
          <mxGeometry x="215" y="152" width="30" height="32" as="geometry" />
        </mxCell>
        <mxCell id="dim7RNq8vWVdTdWYIxd7-31" value="" style="endArrow=classic;html=1;rounded=0;entryX=0;entryY=0.5;entryDx=0;entryDy=0;exitX=1;exitY=0.5;exitDx=0;exitDy=0;" edge="1" parent="1" source="dim7RNq8vWVdTdWYIxd7-30" target="dim7RNq8vWVdTdWYIxd7-3">
          <mxGeometry width="50" height="50" relative="1" as="geometry">
            <mxPoint x="225" y="168" as="sourcePoint" />
            <mxPoint x="395" y="56" as="targetPoint" />
          </mxGeometry>
        </mxCell>
        <mxCell id="dim7RNq8vWVdTdWYIxd7-32" value="Gateway" style="text;html=1;strokeColor=none;fillColor=none;align=center;verticalAlign=middle;whiteSpace=wrap;rounded=0;" vertex="1" parent="1">
          <mxGeometry x="200" y="123" width="60" height="30" as="geometry" />
        </mxCell>
        <mxCell id="dim7RNq8vWVdTdWYIxd7-34" value="" style="ellipse;whiteSpace=wrap;html=1;aspect=fixed;" vertex="1" parent="1">
          <mxGeometry x="150" y="156" width="24" height="24" as="geometry" />
        </mxCell>
        <mxCell id="dim7RNq8vWVdTdWYIxd7-35" value="" style="endArrow=classic;html=1;rounded=0;entryX=0;entryY=0.5;entryDx=0;entryDy=0;exitX=1;exitY=0.5;exitDx=0;exitDy=0;" edge="1" parent="1" source="dim7RNq8vWVdTdWYIxd7-34" target="dim7RNq8vWVdTdWYIxd7-30">
          <mxGeometry width="50" height="50" relative="1" as="geometry">
            <mxPoint x="345" y="106" as="sourcePoint" />
            <mxPoint x="395" y="56" as="targetPoint" />
          </mxGeometry>
        </mxCell>
        <mxCell id="dim7RNq8vWVdTdWYIxd7-37" value="Jmeter" style="text;html=1;strokeColor=none;fillColor=none;align=center;verticalAlign=middle;whiteSpace=wrap;rounded=0;" vertex="1" parent="1">
          <mxGeometry x="132" y="123" width="60" height="30" as="geometry" />
        </mxCell>
        <mxCell id="dim7RNq8vWVdTdWYIxd7-38" value="Peça 2" style="text;html=1;strokeColor=none;fillColor=none;align=center;verticalAlign=middle;whiteSpace=wrap;rounded=0;" vertex="1" parent="1">
          <mxGeometry x="467.5" y="154" width="60" height="30" as="geometry" />
        </mxCell>
        <mxCell id="dim7RNq8vWVdTdWYIxd7-39" value="&lt;b&gt;Peça 1&lt;/b&gt;" style="text;html=1;strokeColor=none;fillColor=none;align=center;verticalAlign=middle;whiteSpace=wrap;rounded=0;" vertex="1" parent="1">
          <mxGeometry x="303.5" y="150" width="60" height="30" as="geometry" />
        </mxCell>
        <mxCell id="dim7RNq8vWVdTdWYIxd7-41" value="&lt;b&gt;25&lt;/b&gt; Tasks" style="text;html=1;strokeColor=none;fillColor=none;align=center;verticalAlign=middle;whiteSpace=wrap;rounded=0;" vertex="1" parent="1">
          <mxGeometry x="302" y="238" width="60" height="30" as="geometry" />
        </mxCell>
        <mxCell id="dim7RNq8vWVdTdWYIxd7-42" value="Serverless" style="text;html=1;strokeColor=none;fillColor=none;align=center;verticalAlign=middle;whiteSpace=wrap;rounded=0;" vertex="1" parent="1">
          <mxGeometry x="588" y="208" width="96" height="30" as="geometry" />
        </mxCell>
        <mxCell id="dim7RNq8vWVdTdWYIxd7-43" value="&lt;b&gt;ANTES&lt;/b&gt;" style="text;html=1;strokeColor=none;fillColor=none;align=center;verticalAlign=middle;whiteSpace=wrap;rounded=0;" vertex="1" parent="1">
          <mxGeometry x="135" y="37" width="60" height="30" as="geometry" />
        </mxCell>
        <mxCell id="dim7RNq8vWVdTdWYIxd7-81" value="m7g.large" style="text;html=1;strokeColor=none;fillColor=none;align=center;verticalAlign=middle;whiteSpace=wrap;rounded=0;" vertex="1" parent="1">
          <mxGeometry x="302.25" y="220" width="59.5" height="18" as="geometry" />
        </mxCell>
        <mxCell id="dim7RNq8vWVdTdWYIxd7-83" value="&lt;b&gt;EC2&lt;/b&gt;" style="text;html=1;strokeColor=none;fillColor=none;align=center;verticalAlign=middle;whiteSpace=wrap;rounded=0;" vertex="1" parent="1">
          <mxGeometry x="260" y="198" width="60" height="30" as="geometry" />
        </mxCell>
        <mxCell id="dim7RNq8vWVdTdWYIxd7-88" value="" style="whiteSpace=wrap;html=1;aspect=fixed;dashed=1;dashPattern=1 4;" vertex="1" parent="1">
          <mxGeometry x="436.5" y="402" width="143" height="143" as="geometry" />
        </mxCell>
        <mxCell id="dim7RNq8vWVdTdWYIxd7-89" value="&lt;b&gt;30&lt;/b&gt; Tasks" style="text;html=1;strokeColor=none;fillColor=none;align=center;verticalAlign=middle;whiteSpace=wrap;rounded=0;" vertex="1" parent="1">
          <mxGeometry x="479" y="515" width="60" height="30" as="geometry" />
        </mxCell>
        <mxCell id="dim7RNq8vWVdTdWYIxd7-90" value="m7g.large" style="text;html=1;strokeColor=none;fillColor=none;align=center;verticalAlign=middle;whiteSpace=wrap;rounded=0;" vertex="1" parent="1">
          <mxGeometry x="479.25" y="497" width="59.5" height="18" as="geometry" />
        </mxCell>
        <mxCell id="dim7RNq8vWVdTdWYIxd7-91" value="&lt;b&gt;EC2&lt;/b&gt;" style="text;html=1;strokeColor=none;fillColor=none;align=center;verticalAlign=middle;whiteSpace=wrap;rounded=0;" vertex="1" parent="1">
          <mxGeometry x="437" y="475" width="60" height="30" as="geometry" />
        </mxCell>
        <mxCell id="dim7RNq8vWVdTdWYIxd7-92" value="" style="whiteSpace=wrap;html=1;aspect=fixed;dashed=1;dashPattern=1 4;" vertex="1" parent="1">
          <mxGeometry x="268.5" y="404" width="143" height="143" as="geometry" />
        </mxCell>
        <mxCell id="dim7RNq8vWVdTdWYIxd7-93" value="" style="rounded=1;whiteSpace=wrap;html=1;dashed=1;dashPattern=1 1;" vertex="1" parent="1">
          <mxGeometry x="144" y="407" width="54" height="66" as="geometry" />
        </mxCell>
        <mxCell id="dim7RNq8vWVdTdWYIxd7-94" value="" style="rounded=1;whiteSpace=wrap;html=1;fillColor=none;dashed=1;" vertex="1" parent="1">
          <mxGeometry x="324" y="304" width="197" height="85" as="geometry" />
        </mxCell>
        <mxCell id="dim7RNq8vWVdTdWYIxd7-95" value="" style="shape=cylinder3;whiteSpace=wrap;html=1;boundedLbl=1;backgroundOutline=1;size=15;" vertex="1" parent="1">
          <mxGeometry x="615" y="407" width="60" height="80" as="geometry" />
        </mxCell>
        <mxCell id="dim7RNq8vWVdTdWYIxd7-96" value="" style="rounded=1;whiteSpace=wrap;html=1;" vertex="1" parent="1">
          <mxGeometry x="448" y="417" width="120" height="60" as="geometry" />
        </mxCell>
        <mxCell id="dim7RNq8vWVdTdWYIxd7-97" value="" style="rounded=1;whiteSpace=wrap;html=1;" vertex="1" parent="1">
          <mxGeometry x="281" y="417" width="120" height="60" as="geometry" />
        </mxCell>
        <mxCell id="dim7RNq8vWVdTdWYIxd7-98" value="Aurora" style="text;html=1;strokeColor=none;fillColor=none;align=center;verticalAlign=middle;whiteSpace=wrap;rounded=0;" vertex="1" parent="1">
          <mxGeometry x="615" y="437" width="60" height="30" as="geometry" />
        </mxCell>
        <mxCell id="dim7RNq8vWVdTdWYIxd7-99" value="" style="ellipse;whiteSpace=wrap;html=1;aspect=fixed;" vertex="1" parent="1">
          <mxGeometry x="343" y="342" width="31" height="31" as="geometry" />
        </mxCell>
        <mxCell id="dim7RNq8vWVdTdWYIxd7-100" value="" style="ellipse;whiteSpace=wrap;html=1;aspect=fixed;" vertex="1" parent="1">
          <mxGeometry x="387" y="342" width="31" height="31" as="geometry" />
        </mxCell>
        <mxCell id="dim7RNq8vWVdTdWYIxd7-101" value="" style="ellipse;whiteSpace=wrap;html=1;aspect=fixed;" vertex="1" parent="1">
          <mxGeometry x="431" y="342" width="31" height="31" as="geometry" />
        </mxCell>
        <mxCell id="dim7RNq8vWVdTdWYIxd7-102" value="" style="ellipse;whiteSpace=wrap;html=1;aspect=fixed;" vertex="1" parent="1">
          <mxGeometry x="472" y="342" width="31" height="31" as="geometry" />
        </mxCell>
        <mxCell id="dim7RNq8vWVdTdWYIxd7-103" value="" style="endArrow=classic;html=1;rounded=0;exitX=1;exitY=0.5;exitDx=0;exitDy=0;entryX=0;entryY=0.5;entryDx=0;entryDy=0;" edge="1" parent="1" source="dim7RNq8vWVdTdWYIxd7-97" target="dim7RNq8vWVdTdWYIxd7-96">
          <mxGeometry width="50" height="50" relative="1" as="geometry">
            <mxPoint x="564" y="557" as="sourcePoint" />
            <mxPoint x="614" y="507" as="targetPoint" />
          </mxGeometry>
        </mxCell>
        <mxCell id="dim7RNq8vWVdTdWYIxd7-104" value="" style="endArrow=classic;startArrow=classic;html=1;rounded=0;entryX=0;entryY=0.5;entryDx=0;entryDy=0;exitX=1.006;exitY=0.59;exitDx=0;exitDy=0;exitPerimeter=0;" edge="1" parent="1" source="dim7RNq8vWVdTdWYIxd7-96" target="dim7RNq8vWVdTdWYIxd7-98">
          <mxGeometry width="50" height="50" relative="1" as="geometry">
            <mxPoint x="571" y="450" as="sourcePoint" />
            <mxPoint x="614" y="507" as="targetPoint" />
          </mxGeometry>
        </mxCell>
        <mxCell id="dim7RNq8vWVdTdWYIxd7-105" value="Integrações Externas" style="text;html=1;strokeColor=none;fillColor=none;align=center;verticalAlign=middle;whiteSpace=wrap;rounded=0;" vertex="1" parent="1">
          <mxGeometry x="343" y="308" width="159" height="30" as="geometry" />
        </mxCell>
        <mxCell id="dim7RNq8vWVdTdWYIxd7-106" value="" style="endArrow=none;html=1;rounded=0;" edge="1" parent="1">
          <mxGeometry width="50" height="50" relative="1" as="geometry">
            <mxPoint x="340" y="398" as="sourcePoint" />
            <mxPoint x="402" y="398" as="targetPoint" />
          </mxGeometry>
        </mxCell>
        <mxCell id="dim7RNq8vWVdTdWYIxd7-107" value="" style="endArrow=classic;html=1;rounded=0;" edge="1" parent="1">
          <mxGeometry width="50" height="50" relative="1" as="geometry">
            <mxPoint x="358" y="398" as="sourcePoint" />
            <mxPoint x="358" y="374" as="targetPoint" />
          </mxGeometry>
        </mxCell>
        <mxCell id="dim7RNq8vWVdTdWYIxd7-108" value="" style="endArrow=classic;html=1;rounded=0;" edge="1" parent="1">
          <mxGeometry width="50" height="50" relative="1" as="geometry">
            <mxPoint x="402" y="398" as="sourcePoint" />
            <mxPoint x="402" y="374" as="targetPoint" />
          </mxGeometry>
        </mxCell>
        <mxCell id="dim7RNq8vWVdTdWYIxd7-109" value="" style="endArrow=classic;html=1;rounded=0;" edge="1" parent="1">
          <mxGeometry width="50" height="50" relative="1" as="geometry">
            <mxPoint x="340" y="398" as="sourcePoint" />
            <mxPoint x="340" y="416" as="targetPoint" />
          </mxGeometry>
        </mxCell>
        <mxCell id="dim7RNq8vWVdTdWYIxd7-110" value="" style="endArrow=none;html=1;rounded=0;" edge="1" parent="1">
          <mxGeometry width="50" height="50" relative="1" as="geometry">
            <mxPoint x="446" y="397" as="sourcePoint" />
            <mxPoint x="508" y="397" as="targetPoint" />
          </mxGeometry>
        </mxCell>
        <mxCell id="dim7RNq8vWVdTdWYIxd7-111" value="" style="endArrow=classic;html=1;rounded=0;" edge="1" parent="1">
          <mxGeometry width="50" height="50" relative="1" as="geometry">
            <mxPoint x="446" y="397" as="sourcePoint" />
            <mxPoint x="446" y="373" as="targetPoint" />
          </mxGeometry>
        </mxCell>
        <mxCell id="dim7RNq8vWVdTdWYIxd7-112" value="" style="endArrow=classic;html=1;rounded=0;" edge="1" parent="1">
          <mxGeometry width="50" height="50" relative="1" as="geometry">
            <mxPoint x="490" y="397" as="sourcePoint" />
            <mxPoint x="490" y="373" as="targetPoint" />
          </mxGeometry>
        </mxCell>
        <mxCell id="dim7RNq8vWVdTdWYIxd7-113" value="" style="endArrow=classic;html=1;rounded=0;entryX=0.5;entryY=0;entryDx=0;entryDy=0;" edge="1" parent="1" target="dim7RNq8vWVdTdWYIxd7-96">
          <mxGeometry width="50" height="50" relative="1" as="geometry">
            <mxPoint x="508" y="397" as="sourcePoint" />
            <mxPoint x="428" y="415" as="targetPoint" />
          </mxGeometry>
        </mxCell>
        <mxCell id="dim7RNq8vWVdTdWYIxd7-114" value="A" style="text;html=1;strokeColor=none;fillColor=none;align=center;verticalAlign=middle;whiteSpace=wrap;rounded=0;" vertex="1" parent="1">
          <mxGeometry x="328.5" y="342" width="60" height="30" as="geometry" />
        </mxCell>
        <mxCell id="dim7RNq8vWVdTdWYIxd7-115" value="B" style="text;html=1;strokeColor=none;fillColor=none;align=center;verticalAlign=middle;whiteSpace=wrap;rounded=0;" vertex="1" parent="1">
          <mxGeometry x="372.5" y="343" width="60" height="30" as="geometry" />
        </mxCell>
        <mxCell id="dim7RNq8vWVdTdWYIxd7-116" value="C" style="text;html=1;strokeColor=none;fillColor=none;align=center;verticalAlign=middle;whiteSpace=wrap;rounded=0;" vertex="1" parent="1">
          <mxGeometry x="416.5" y="343" width="60" height="30" as="geometry" />
        </mxCell>
        <mxCell id="dim7RNq8vWVdTdWYIxd7-117" value="D" style="text;html=1;strokeColor=none;fillColor=none;align=center;verticalAlign=middle;whiteSpace=wrap;rounded=0;" vertex="1" parent="1">
          <mxGeometry x="457.5" y="343" width="60" height="30" as="geometry" />
        </mxCell>
        <mxCell id="dim7RNq8vWVdTdWYIxd7-118" value="" style="rhombus;whiteSpace=wrap;html=1;" vertex="1" parent="1">
          <mxGeometry x="224" y="431" width="30" height="32" as="geometry" />
        </mxCell>
        <mxCell id="dim7RNq8vWVdTdWYIxd7-119" value="" style="endArrow=classic;html=1;rounded=0;entryX=0;entryY=0.5;entryDx=0;entryDy=0;exitX=1;exitY=0.5;exitDx=0;exitDy=0;" edge="1" parent="1" source="dim7RNq8vWVdTdWYIxd7-118" target="dim7RNq8vWVdTdWYIxd7-97">
          <mxGeometry width="50" height="50" relative="1" as="geometry">
            <mxPoint x="234" y="447" as="sourcePoint" />
            <mxPoint x="404" y="335" as="targetPoint" />
          </mxGeometry>
        </mxCell>
        <mxCell id="dim7RNq8vWVdTdWYIxd7-120" value="Gateway" style="text;html=1;strokeColor=none;fillColor=none;align=center;verticalAlign=middle;whiteSpace=wrap;rounded=0;" vertex="1" parent="1">
          <mxGeometry x="209" y="402" width="60" height="30" as="geometry" />
        </mxCell>
        <mxCell id="dim7RNq8vWVdTdWYIxd7-121" value="" style="ellipse;whiteSpace=wrap;html=1;aspect=fixed;" vertex="1" parent="1">
          <mxGeometry x="159" y="435" width="24" height="24" as="geometry" />
        </mxCell>
        <mxCell id="dim7RNq8vWVdTdWYIxd7-122" value="" style="endArrow=classic;html=1;rounded=0;entryX=0;entryY=0.5;entryDx=0;entryDy=0;exitX=1;exitY=0.5;exitDx=0;exitDy=0;" edge="1" parent="1" source="dim7RNq8vWVdTdWYIxd7-121" target="dim7RNq8vWVdTdWYIxd7-118">
          <mxGeometry width="50" height="50" relative="1" as="geometry">
            <mxPoint x="354" y="385" as="sourcePoint" />
            <mxPoint x="404" y="335" as="targetPoint" />
          </mxGeometry>
        </mxCell>
        <mxCell id="dim7RNq8vWVdTdWYIxd7-123" value="Jmeter" style="text;html=1;strokeColor=none;fillColor=none;align=center;verticalAlign=middle;whiteSpace=wrap;rounded=0;" vertex="1" parent="1">
          <mxGeometry x="141" y="402" width="60" height="30" as="geometry" />
        </mxCell>
        <mxCell id="dim7RNq8vWVdTdWYIxd7-124" value="Peça 2" style="text;html=1;strokeColor=none;fillColor=none;align=center;verticalAlign=middle;whiteSpace=wrap;rounded=0;" vertex="1" parent="1">
          <mxGeometry x="476.5" y="433" width="60" height="30" as="geometry" />
        </mxCell>
        <mxCell id="dim7RNq8vWVdTdWYIxd7-125" value="&lt;b&gt;Peça 1&lt;/b&gt;" style="text;html=1;strokeColor=none;fillColor=none;align=center;verticalAlign=middle;whiteSpace=wrap;rounded=0;" vertex="1" parent="1">
          <mxGeometry x="312.5" y="429" width="60" height="30" as="geometry" />
        </mxCell>
        <mxCell id="dim7RNq8vWVdTdWYIxd7-126" value="&lt;b&gt;19&lt;/b&gt; Tasks" style="text;html=1;strokeColor=none;fillColor=none;align=center;verticalAlign=middle;whiteSpace=wrap;rounded=0;" vertex="1" parent="1">
          <mxGeometry x="311" y="517" width="60" height="30" as="geometry" />
        </mxCell>
        <mxCell id="dim7RNq8vWVdTdWYIxd7-128" value="&lt;b&gt;DEPOIS&lt;/b&gt;" style="text;html=1;strokeColor=none;fillColor=none;align=center;verticalAlign=middle;whiteSpace=wrap;rounded=0;" vertex="1" parent="1">
          <mxGeometry x="144" y="316" width="60" height="30" as="geometry" />
        </mxCell>
        <mxCell id="dim7RNq8vWVdTdWYIxd7-129" value="m7g.large" style="text;html=1;strokeColor=none;fillColor=none;align=center;verticalAlign=middle;whiteSpace=wrap;rounded=0;" vertex="1" parent="1">
          <mxGeometry x="311.25" y="499" width="59.5" height="18" as="geometry" />
        </mxCell>
        <mxCell id="dim7RNq8vWVdTdWYIxd7-130" value="&lt;b&gt;EC2&lt;/b&gt;" style="text;html=1;strokeColor=none;fillColor=none;align=center;verticalAlign=middle;whiteSpace=wrap;rounded=0;" vertex="1" parent="1">
          <mxGeometry x="269" y="477" width="60" height="30" as="geometry" />
        </mxCell>
        <mxCell id="dim7RNq8vWVdTdWYIxd7-131" value="Serverless" style="text;html=1;strokeColor=none;fillColor=none;align=center;verticalAlign=middle;whiteSpace=wrap;rounded=0;" vertex="1" parent="1">
          <mxGeometry x="600" y="485" width="96" height="30" as="geometry" />
        </mxCell>
      </root>
    </mxGraphModel>
  </diagram>
</mxfile>
